<svg width="100" height="100" viewBox="0 0 100 100" fill="none" xmlns="http://www.w3.org/2000/svg">
<path d="M50 91.6679C73.0117 91.6679 91.6667 83.2733 91.6667 72.9179C91.6667 67.6404 86.8209 62.8717 79.0225 59.4646C74.2638 68.1971 67.0071 75.7242 57.7896 79.6633C52.835 81.7808 47.165 81.7808 42.2105 79.6633C32.9929 75.7242 25.7361 68.1971 20.9775 59.4646C13.179 62.8717 8.33337 67.6404 8.33337 72.9179C8.33337 83.2733 26.9882 91.6679 50 91.6679Z" fill="white"/>
<path fill-rule="evenodd" clip-rule="evenodd" d="M20.8334 35.4777C20.8334 20.4862 33.8917 8.33333 50 8.33333C66.1084 8.33333 79.1667 20.4862 79.1667 35.4777C79.1667 50.3517 69.8575 67.7079 55.3338 73.915C51.948 75.3617 48.0521 75.3617 44.6663 73.915C30.1424 67.7079 20.8334 50.3517 20.8334 35.4777ZM50 45.8333C54.6025 45.8333 58.3334 42.1025 58.3334 37.5C58.3334 32.8976 54.6025 29.1667 50 29.1667C45.3975 29.1667 41.6667 32.8976 41.6667 37.5C41.6667 42.1025 45.3975 45.8333 50 45.8333Z" fill="white"/>
</svg>
