<svg width="65" height="65" viewBox="0 0 65 65" fill="none" xmlns="http://www.w3.org/2000/svg">
<path d="M41.2059 13.4023H45.8532C47.054 13.4023 48.1694 13.4023 49.2069 13.4095V28.9848L46.95 27.7235L46.9222 27.7081C46.8121 27.6463 46.6108 27.5334 46.4114 27.4457C46.1493 27.3301 45.7342 27.1832 45.2064 27.1832C44.6787 27.1832 44.2636 27.3301 44.0015 27.4457C43.8021 27.5334 43.6008 27.6463 43.4907 27.7081L43.4629 27.7235L41.2059 28.9848V13.4023Z" fill="#EF1414"/>
<path d="M64.4089 31.9579V39.0055C64.4089 51.0749 64.4089 57.1099 60.6593 60.8592C56.91 64.6088 50.875 64.6088 38.8056 64.6088H26.004C13.9345 64.6088 7.89983 64.6088 4.1503 60.8592C0.400803 57.1099 0.400803 51.0749 0.400803 39.0055V16.4419C0.400803 13.6174 0.400803 12.2052 0.622751 11.0289C1.5998 5.85036 5.65045 1.79971 10.829 0.822656C12.0053 0.600708 13.4175 0.600708 16.242 0.600708C17.4795 0.600708 18.0983 0.600708 18.6929 0.656331C21.2567 0.896073 23.6886 1.9034 25.671 3.54671C26.1308 3.92788 26.5683 4.36544 27.4432 5.24049L29.2044 7.00151C31.8153 9.61234 33.1208 10.9177 34.6838 11.7875C35.2375 12.0956 35.8129 12.3619 36.4053 12.5844V13.4023V30.761V30.8538C36.405 31.2862 36.4047 31.8216 36.4642 32.2706C36.5263 32.7372 36.7292 33.8001 37.745 34.5019C38.8556 35.2691 39.993 34.9801 40.5105 34.7906C40.9441 34.6322 41.413 34.3694 41.7484 34.1813L41.8294 34.1358L45.2064 32.2485L48.5835 34.1358L48.6645 34.1813C48.9999 34.3694 49.4687 34.6322 49.9024 34.7906C50.4199 34.9801 51.5573 35.2691 52.6679 34.5019C53.6837 33.8001 53.8866 32.7372 53.9487 32.2706C54.0082 31.8216 54.0079 31.2862 54.0075 30.8538V30.761V13.5523C57.3641 13.7835 59.5673 14.3712 61.2283 15.8649C61.4802 16.0914 61.7199 16.3311 61.9461 16.583C64.4089 19.321 64.4089 23.5333 64.4089 31.9579Z" fill="#EF1414"/>
</svg>
