<svg width="84" height="84" viewBox="0 0 84 84" fill="none" xmlns="http://www.w3.org/2000/svg">
<path d="M53.4583 16.9583H59.5087C61.0721 16.9583 62.5241 16.9583 63.875 16.9676V37.2454L60.9366 35.6033L60.9004 35.5833C60.7571 35.5029 60.495 35.3558 60.2354 35.2416C59.8941 35.0912 59.3537 34.9 58.6666 34.9C57.9796 34.9 57.4391 35.0912 57.0979 35.2416C56.8383 35.3558 56.5762 35.5029 56.4329 35.5833L56.3966 35.6033L53.4583 37.2454V16.9583Z" 
fill="#cacaca"/>
<path d="M83.6667 41.1162V50.2917C83.6667 66.005 83.6666 73.8621 78.785 78.7433C73.9037 83.625 66.0467 83.625 50.3333 83.625H33.6666C17.9531 83.625 10.0964 83.625 5.21486 78.7433C0.333313 73.8621 0.333313 66.005 0.333313 50.2917V20.9156C0.333313 17.2384 0.333313 15.3998 0.622271 13.8683C1.89431 7.12628 7.16794 1.85266 13.9099 0.580615C15.4414 0.291657 17.2801 0.291656 20.9573 0.291656C22.5684 0.291656 23.374 0.291656 24.1482 0.364073C27.486 0.676198 30.6521 1.98766 33.2331 4.12712C33.8316 4.62337 34.4012 5.19303 35.5404 6.33228L37.8333 8.62499C41.2325 12.0241 42.9321 13.7236 44.9671 14.8559C45.6879 15.257 46.4371 15.6037 47.2083 15.8934V16.9583V39.5579V39.6787C47.2079 40.2417 47.2075 40.9387 47.285 41.5233C47.3658 42.1308 47.63 43.5146 48.9525 44.4283C50.3983 45.4271 51.8792 45.0508 52.5529 44.8042C53.1175 44.5979 53.7279 44.2558 54.1646 44.0108L54.27 43.9517L58.6666 41.4946L63.0633 43.9517L63.1687 44.0108C63.6054 44.2558 64.2158 44.5979 64.7804 44.8042C65.4542 45.0508 66.935 45.4271 68.3808 44.4283C69.7033 43.5146 69.9675 42.1308 70.0483 41.5233C70.1258 40.9387 70.1254 40.2417 70.125 39.6787V39.5579V17.1536C74.495 17.4546 77.3633 18.2197 79.5258 20.1644C79.8537 20.4593 80.1658 20.7714 80.4604 21.0993C83.6666 24.6639 83.6667 30.1481 83.6667 41.1162Z" 
fill="#cacaca"/>
</svg>
