<svg width="100" height="99" viewBox="0 0 100 99" fill="none" xmlns="http://www.w3.org/2000/svg">
<path fill-rule="evenodd" clip-rule="evenodd" d="M13.5416 90.6667C13.5416 88.9409 14.9408 87.5417 16.6666 87.5417H83.3333C85.0591 87.5417 86.4583 88.9409 86.4583 90.6667C86.4583 92.3925 85.0591 93.7917 83.3333 93.7917H16.6666C14.9408 93.7917 13.5416 92.3925 13.5416 90.6667Z" fill="white"/>
<path d="M48.0004 61.2042L72.6533 36.551C69.2979 35.1546 65.3237 32.8607 61.5654 29.1023C57.8066 25.3432 55.5125 21.3686 54.1162 18.013L29.4627 42.6663C27.539 44.59 26.5769 45.5521 25.7496 46.6129C24.7738 47.8638 23.9371 49.2175 23.2544 50.65C22.6758 51.8642 22.2455 53.155 21.3852 55.7363L16.8481 69.3471C16.4247 70.6175 16.7553 72.0179 17.702 72.9646C18.6488 73.9112 20.0492 74.2421 21.3194 73.8183L34.9305 69.2817C37.5117 68.4212 38.8023 67.9908 40.0165 67.4121C41.4489 66.7296 42.8029 65.8929 44.0537 64.9171C45.1145 64.0896 46.0766 63.1279 48.0004 61.2042Z" fill="white"/>
<path d="M79.4941 29.7102C84.6128 24.5912 84.6128 16.2916 79.4941 11.1726C74.3749 6.05359 66.0753 6.05359 60.9566 11.1726L57.9995 14.1294C58.0399 14.2517 58.082 14.3756 58.1258 14.5012C59.2095 17.625 61.2541 21.7201 65.1012 25.5668C68.9478 29.4135 73.0428 31.4583 76.1666 32.5421C76.2916 32.5854 76.4149 32.6273 76.5366 32.6675L79.4941 29.7102Z" fill="white"/>
</svg>
